<?xml version="1.0" standalone="no"?>
<!DOCTYPE svg PUBLIC "-//W3C//DTD SVG 20010904//EN"
 "http://www.w3.org/TR/2001/REC-SVG-20010904/DTD/svg10.dtd">
<svg version="1.0" xmlns="http://www.w3.org/2000/svg"
 width="300.000000pt" height="184.000000pt" viewBox="0 0 300.000000 184.000000"
 preserveAspectRatio="xMidYMid meet">
<metadata>
Created by potrace 1.10, written by Peter Selinger 2001-2011
</metadata>
<g transform="translate(0.000000,184.000000) scale(0.100000,-0.100000)"
fill="#000000" stroke="none">
<path d="M1485 1795 c-22 -8 -58 -15 -80 -15 -47 0 -46 0 -120 -65 -57 -50
-85 -90 -85 -120 0 -32 34 -87 66 -108 18 -12 38 -33 44 -47 11 -23 9 -27 -22
-50 -63 -47 -103 -96 -138 -168 -25 -53 -37 -69 -46 -61 -7 5 -12 25 -11 43 1
24 -17 63 -63 140 -68 116 -96 144 -128 127 -26 -14 -92 -88 -92 -104 0 -7 29
-64 65 -127 43 -76 62 -117 55 -124 -5 -5 -10 -23 -10 -38 0 -35 -13 -36 -38
0 -32 46 -32 49 -11 76 24 31 20 48 -16 72 -115 75 -180 -117 -78 -235 19 -23
34 -43 32 -45 -2 -1 -29 -8 -60 -15 -149 -32 -171 -181 -34 -235 28 -11 51
-21 53 -22 1 0 -11 -27 -28 -58 -23 -44 -27 -62 -20 -76 16 -31 29 -33 77 -15
l45 17 26 -25 c15 -14 40 -29 55 -33 25 -6 35 -1 73 37 43 43 44 43 80 30 21
-8 50 -10 71 -6 25 4 46 0 78 -15 27 -13 53 -19 65 -15 15 5 22 0 30 -19 16
-44 53 -60 121 -52 l60 6 -27 -35 c-18 -25 -34 -35 -53 -35 -15 0 -36 -7 -48
-15 -19 -13 -24 -13 -50 0 -18 10 -41 13 -64 10 -31 -5 -37 -3 -47 19 -19 42
-59 56 -132 46 -76 -11 -107 -31 -137 -90 -43 -83 -18 -181 57 -224 53 -31
144 -28 195 7 22 15 52 27 67 27 15 0 39 5 53 12 20 9 31 8 50 -2 15 -8 37
-10 62 -6 21 4 44 7 51 7 6 -1 19 -1 27 -1 8 1 26 1 40 0 14 0 36 0 50 0 14
-1 33 -1 43 -1 9 0 35 0 57 -1 22 -1 50 2 62 6 31 10 60 -9 68 -44 24 -109
179 -74 192 44 3 25 8 46 12 46 3 0 16 -16 29 -36 47 -73 160 -90 248 -39 l43
25 288 1 c158 1 296 6 305 11 30 15 49 63 38 93 -6 15 -10 37 -10 50 0 13 -11
32 -25 43 -22 17 -37 20 -113 16 -48 -3 -96 -4 -107 -3 -11 0 -89 1 -172 1
l-153 0 0 24 c0 35 -41 59 -79 46 -16 -6 -47 -8 -69 -5 -98 13 -179 -23 -209
-94 l-14 -34 -25 31 c-29 34 -59 38 -110 14 -32 -15 -36 -15 -54 1 -12 11 -28
15 -42 12 -34 -9 -65 2 -71 24 -4 14 1 23 16 28 12 5 33 21 47 35 21 23 22 30
12 46 -7 11 -12 24 -12 28 0 5 35 12 78 14 127 9 204 53 248 141 15 29 28 54
30 56 2 2 19 -10 38 -27 47 -41 94 -49 151 -27 56 21 85 57 85 104 0 68 -49
118 -131 135 -39 8 -44 34 -15 65 36 38 48 78 41 134 -7 49 -33 87 -59 87 -8
0 -27 -5 -42 -10 -15 -6 -29 -9 -31 -6 -2 2 9 28 25 57 49 89 49 92 -6 148
-26 28 -56 51 -66 51 -10 0 -30 -13 -44 -29 -45 -48 -116 -183 -122 -230 -3
-25 -10 -46 -16 -48 -5 -2 -23 25 -40 59 -20 43 -52 86 -102 136 -86 85 -90
108 -23 134 51 20 84 70 77 117 -7 45 -29 76 -78 109 -22 15 -52 35 -67 44
-14 10 -42 18 -61 18 -19 1 -53 9 -75 20 -48 23 -49 23 -100 5z m116 -54 c19
-14 30 -16 43 -9 23 13 86 -14 86 -37 0 -18 -16 -20 -26 -4 -4 7 -24 9 -50 6
-24 -2 -44 -1 -44 4 0 12 -55 39 -80 39 -11 0 -29 -9 -39 -19 -16 -16 -26 -18
-51 -11 -41 12 -78 -3 -85 -33 -4 -13 -18 -28 -35 -34 -51 -19 -65 -86 -21
-101 8 -3 10 4 5 24 -10 39 8 24 35 -31 20 -39 27 -46 45 -40 45 13 143 18
150 6 5 -7 -8 -11 -41 -11 -57 0 -126 -17 -118 -30 3 -5 19 -4 38 1 48 14 176
11 229 -6 43 -13 48 -12 57 3 14 25 23 9 12 -21 l-10 -25 -63 20 c-74 23 -195
20 -246 -6 l-31 -16 -11 35 c-6 19 -9 39 -5 44 3 6 -12 15 -34 21 -72 19 -95
89 -45 135 15 14 33 25 40 25 8 0 14 6 14 13 0 8 11 24 25 37 20 19 32 22 70
18 25 -3 48 -1 51 4 20 32 91 31 135 -1z m-15 -66 c10 -8 33 -15 50 -15 20 0
39 -9 57 -27 l26 -28 -42 1 c-23 0 -52 6 -64 13 -13 6 -34 9 -47 5 -13 -3 -34
0 -46 6 -34 18 -72 -12 -68 -53 3 -30 1 -32 -33 -35 -32 -3 -40 2 -59 28 l-22
32 33 34 c27 28 41 34 73 34 23 0 48 5 56 10 22 14 63 12 86 -5z m222 -31 c61
-69 -19 -167 -101 -122 -12 7 -32 11 -45 9 -13 -1 -34 5 -48 14 -14 9 -33 13
-44 10 -10 -3 -32 0 -47 8 -15 8 -33 12 -40 10 -7 -3 -9 3 -6 16 6 25 16 26
33 6 15 -18 51 -20 68 -3 8 8 16 5 31 -13 16 -20 23 -22 47 -13 24 8 34 7 56
-9 32 -24 74 -17 83 14 9 29 -20 69 -50 69 -24 0 -33 18 -18 34 13 13 57 -4
81 -30z m-815 -309 c67 -113 76 -138 57 -150 -6 -4 -3 -17 10 -35 17 -24 18
-29 5 -40 -12 -10 -17 -7 -26 13 -10 22 -14 24 -30 14 -10 -6 -20 -9 -22 -7
-33 42 -145 246 -139 252 6 6 33 -30 67 -84 66 -107 63 -103 71 -95 3 3 -18
45 -48 94 -30 48 -58 93 -61 100 -4 6 -3 14 2 17 5 3 37 -39 71 -95 34 -55 64
-98 67 -95 3 3 -22 51 -55 108 -55 94 -64 119 -44 118 4 0 37 -52 75 -115z
m603 84 c32 -6 85 -24 116 -41 66 -35 153 -121 144 -144 -3 -8 0 -14 9 -14 16
0 42 -73 51 -144 l7 -48 16 26 c9 14 19 26 24 26 17 0 18 -31 3 -55 -9 -14
-24 -37 -33 -52 -14 -21 -15 -25 -3 -18 8 5 26 8 40 7 17 -2 35 7 55 27 32 34
72 46 42 13 -10 -10 -15 -21 -12 -24 3 -3 -4 -13 -14 -23 -14 -12 -18 -25 -15
-45 10 -46 -43 -127 -67 -103 -8 8 -5 20 11 41 41 55 5 94 -50 53 -38 -27 -55
-10 -39 39 16 43 6 172 -18 234 -11 30 -39 71 -73 105 -151 156 -383 157 -520
3 -60 -67 -70 -80 -71 -89 0 -5 -6 -30 -14 -57 -17 -56 -19 -136 -6 -183 7
-23 6 -35 -2 -40 -6 -3 -12 -2 -15 5 -2 6 -25 47 -52 91 -40 65 -46 82 -35 91
11 9 19 4 37 -23 l23 -35 12 59 c33 165 151 288 303 318 63 12 79 12 146 0z
m500 -104 c-31 -54 -54 -100 -50 -104 4 -3 8 -1 10 4 11 31 107 185 115 185
16 0 10 -12 -46 -109 -58 -99 -59 -101 -47 -101 4 0 31 40 60 90 38 65 57 88
67 83 13 -5 12 -11 -6 -42 -12 -20 -44 -76 -72 -124 -46 -81 -51 -86 -67 -72
-22 20 -23 20 -44 -20 -11 -19 -23 -35 -27 -35 -20 0 -19 24 4 58 19 29 22 42
14 58 -7 18 -1 36 34 95 77 134 90 152 101 141 7 -7 -9 -42 -46 -107z m-432
14 c70 -31 138 -103 164 -176 12 -33 22 -67 22 -76 0 -25 -19 -31 -40 -12 -18
16 -18 20 -4 46 35 69 -54 115 -142 73 -30 -14 -35 -14 -56 0 -31 22 -73 20
-124 -6 -42 -21 -44 -21 -63 -3 -26 23 -101 37 -140 25 -40 -11 -39 -3 4 47
41 48 88 80 148 99 58 19 169 11 231 -17z m-821 -133 c26 -20 21 -25 -18 -19
-44 7 -44 -2 -3 -79 40 -75 80 -105 134 -99 22 2 24 32 4 72 -11 21 -16 39
-10 39 18 0 50 -64 50 -102 0 -20 6 -38 13 -41 9 -3 9 -7 0 -17 -6 -7 -17 -9
-24 -4 -7 4 -35 8 -63 8 -91 2 -160 75 -161 170 0 28 3 59 7 69 9 20 46 22 71
3z m1435 -33 c2 -11 -10 -50 -26 -86 -17 -36 -28 -68 -24 -71 3 -3 -20 -6 -52
-6 l-56 0 20 40 c11 21 20 42 20 45 0 9 -91 -45 -137 -82 -41 -33 -63 -41 -63
-24 0 24 230 174 245 160 3 -4 -3 -22 -14 -40 -10 -19 -22 -44 -26 -56 -5 -20
-3 -23 20 -23 15 0 23 4 20 10 -3 5 6 27 20 47 14 21 25 48 25 60 0 19 -6 23
-32 24 l-33 1 30 13 c39 19 59 15 63 -12z m-881 -4 c7 -6 13 -19 13 -28 0 -23
-53 -62 -70 -51 -9 6 -7 9 8 14 40 13 34 66 -8 66 -14 0 -19 -10 -22 -42 -5
-59 2 -98 18 -98 8 0 14 -4 14 -10 0 -5 -18 -10 -40 -10 -22 0 -40 5 -40 10 0
6 6 10 14 10 10 0 12 12 9 48 -6 70 -13 93 -23 87 -6 -3 -10 -2 -10 4 0 21
110 21 137 0z m201 -1 c16 -14 15 -33 -3 -48 -12 -10 -15 -10 -15 1 0 11 -2
11 -8 1 -11 -16 -42 -5 -42 14 0 21 27 29 45 14 13 -11 14 -10 9 4 -8 22 -57
21 -77 -2 -9 -10 -20 -32 -23 -50 -5 -26 -1 -36 25 -62 36 -37 74 -38 79 -2 2
12 10 22 18 22 20 0 17 -24 -6 -45 -41 -37 -124 -9 -144 48 -27 76 80 154 142
105z m176 -3 c8 -9 13 -22 10 -29 -8 -20 -53 -29 -70 -15 -13 11 -13 14 0 27
17 18 40 6 31 -17 -5 -12 -3 -13 6 -4 18 18 3 43 -26 43 -62 0 -88 -88 -40
-136 30 -30 66 -29 80 4 5 12 15 22 22 22 17 0 16 -11 -2 -37 -43 -62 -155
-17 -155 63 0 71 98 125 144 79z m-519 -92 c1 -55 4 -68 23 -83 12 -10 22 -21
22 -23 0 -9 -71 -29 -78 -22 -13 13 -14 172 -2 195 19 36 34 7 35 -67z m1024
8 c-12 -40 -39 -76 -39 -52 0 6 4 19 10 29 5 9 15 30 20 46 16 43 23 24 9 -23z
m-870 -9 c6 -11 6 -24 0 -33 -14 -22 -11 -25 19 -24 20 0 27 -5 27 -20 0 -16
-7 -20 -35 -20 -34 0 -35 1 -36 41 0 23 -4 48 -7 57 -9 23 20 22 32 -1z m158
-6 c-6 -17 -31 -13 -35 6 -2 12 2 15 18 11 11 -3 19 -11 17 -17z m168 -5 c-14
-14 -17 -14 -25 -1 -15 23 -12 28 16 22 24 -4 24 -6 9 -21z m143 -58 c-6 -63
-54 -173 -75 -173 -9 0 -3 18 17 53 16 30 30 60 30 68 0 8 -11 -8 -24 -36 -29
-61 -52 -92 -61 -83 -4 4 6 26 22 50 16 24 35 58 43 76 9 24 15 30 21 20 6 -8
9 2 9 28 0 37 6 54 18 54 3 0 2 -26 0 -57z m-795 -15 c8 -22 -1 -23 -25 -1
-10 9 -18 27 -18 41 l0 25 18 -24 c10 -13 21 -32 25 -41z m644 -18 c21 0 49 7
61 16 22 15 22 15 11 -13 -16 -43 -49 -92 -67 -102 -11 -5 -45 -2 -92 9 -58
14 -79 24 -97 47 -30 37 -29 43 10 43 17 1 43 7 57 14 21 12 29 12 52 0 15 -8
44 -14 65 -14z m498 0 c3 -5 -9 -17 -26 -26 -45 -23 -129 -103 -129 -123 0
-19 -50 -101 -62 -101 -11 0 -10 18 2 25 6 3 17 21 26 38 11 21 12 28 3 20
-23 -23 -28 -14 -13 22 8 19 14 37 14 40 -1 46 1 50 11 32 11 -18 12 -18 33 2
16 16 122 80 133 81 1 0 4 -4 8 -10z m-1126 -68 c36 -32 74 -61 84 -65 18 -7
24 -47 7 -47 -5 0 -10 5 -10 10 0 18 -22 10 -58 -21 -35 -31 -105 -68 -129
-69 -19 0 -16 25 8 72 l21 41 -40 -31 c-46 -37 -152 -149 -152 -162 0 -5 18
-1 40 7 22 9 42 14 43 12 6 -9 -5 -119 -13 -119 -9 0 -20 36 -20 68 0 12 -3
22 -7 22 -4 0 -34 -16 -66 -36 -32 -20 -61 -34 -64 -31 -6 6 62 105 111 161
22 26 39 37 49 33 11 -4 14 -2 11 7 -3 8 4 21 16 29 21 14 20 16 -40 52 -77
47 -130 50 -169 10 l-26 -26 28 -25 c31 -26 56 -31 75 -12 23 23 14 41 -18 35
-34 -7 -40 7 -9 23 50 27 114 -19 89 -65 -23 -44 -83 -56 -145 -31 -62 26 -74
88 -24 130 34 29 45 32 52 14 3 -8 6 -6 6 5 2 40 132 2 204 -61 13 -12 22 -13
40 -5 39 19 54 22 66 10 13 -13 15 -31 2 -23 -9 6 -57 -61 -49 -69 2 -3 28 11
56 31 l53 35 -56 64 c-48 55 -62 85 -38 85 3 0 35 -26 72 -58z m412 21 c9 -9
-6 -12 -70 -12 -71 0 -91 -4 -147 -30 -58 -27 -64 -32 -53 -49 12 -19 14 -18
58 9 59 37 111 48 111 25 0 -9 -8 -16 -17 -16 -38 -1 -101 -40 -177 -109 -43
-39 -82 -71 -86 -71 -4 0 -13 7 -20 15 -9 11 -6 23 19 59 21 30 36 43 47 39
13 -5 13 -8 -1 -29 -22 -34 -1 -30 29 7 l26 30 -30 58 c-27 54 -29 71 -9 71 3
0 9 -10 12 -22 5 -18 9 -19 21 -9 40 33 111 51 193 49 47 -2 87 -8 94 -15z
m-525 -20 c18 -24 17 -33 -1 -33 -19 0 -65 29 -65 41 0 16 53 9 66 -8z m1325
-3 c20 -6 44 -18 53 -29 15 -16 15 -20 2 -31 -13 -10 -20 -8 -42 9 -34 27 -90
27 -129 0 -16 -11 -40 -24 -53 -29 -12 -5 -26 -20 -31 -32 -33 -85 -49 -113
-76 -134 -46 -35 -111 -55 -190 -58 -73 -3 -228 -49 -201 -59 8 -3 42 -9 75
-13 34 -3 61 -10 61 -15 0 -5 -11 -16 -24 -25 -23 -14 -31 -14 -118 8 -78 19
-93 26 -96 44 -3 19 6 25 70 43 40 12 80 25 88 28 17 6 -79 32 -122 33 -28 0
-35 14 -20 37 6 9 36 5 127 -17 65 -17 140 -30 165 -30 92 0 185 45 218 106 7
13 -10 1 -37 -26 -28 -28 -58 -50 -68 -49 -15 0 -13 3 7 17 44 29 111 103 123
136 4 10 13 16 21 13 8 -3 16 2 19 12 4 18 99 71 126 71 9 0 32 -5 52 -10z
m-426 -10 c3 -5 -6 -27 -20 -47 -29 -44 -23 -49 33 -30 29 10 44 11 51 4 18
-18 13 -25 -25 -37 -49 -17 -124 -7 -259 31 -60 18 -139 34 -175 38 -48 4 -65
10 -65 21 0 23 66 15 229 -26 76 -19 145 -33 152 -30 7 3 23 23 36 45 24 42
32 48 43 31z m395 -60 c0 -5 -6 -10 -14 -10 -23 0 -28 -17 -10 -34 23 -24 40
-20 81 19 40 38 60 34 49 -10 -10 -39 -62 -67 -114 -62 -44 5 -82 30 -82 54 0
33 21 53 55 53 19 0 35 -4 35 -10z m-610 -53 c141 -41 205 -49 256 -35 20 5
38 7 41 5 2 -3 -10 -21 -27 -41 -30 -34 -35 -36 -94 -36 -33 0 -104 12 -155
25 -101 27 -210 33 -258 14 -52 -20 -196 -40 -208 -28 -13 14 73 94 130 121
58 27 160 19 315 -25z m-631 -108 c22 -13 43 -18 60 -15 25 6 25 6 6 -9 -18
-14 -17 -15 14 -9 24 5 32 4 27 -4 -3 -6 -2 -13 3 -16 5 -4 8 5 6 20 -2 20 1
24 14 18 9 -3 26 -9 38 -11 13 -3 20 -9 17 -14 -9 -15 9 -10 45 12 18 11 36
18 39 15 7 -7 5 -9 -38 -35 -19 -11 -30 -21 -24 -21 5 0 36 15 67 34 64 39 74
35 25 -7 -30 -26 -29 -26 17 4 60 40 108 58 158 59 61 0 45 -33 -21 -44 -24
-3 -60 -14 -80 -22 l-37 -16 75 -22 c67 -19 75 -24 78 -48 3 -24 -1 -27 -68
-43 -66 -16 -72 -16 -96 0 -32 21 -18 34 36 36 72 1 74 14 6 36 -56 18 -68 19
-83 7 -29 -22 -74 -17 -105 13 l-28 26 -39 -18 -40 -18 -33 28 -33 28 -57 -63
c-43 -46 -58 -58 -58 -43 0 11 17 39 37 64 21 24 27 35 15 25 -17 -15 -22 -16
-22 -5 0 8 5 20 12 27 9 9 9 12 0 12 -9 0 -9 5 0 20 16 25 25 25 67 -1z m587
-220 c9 -16 -18 -30 -33 -17 -7 6 -13 14 -13 19 0 13 38 11 46 -2z m-56 -30
c0 -6 -9 -13 -20 -16 -16 -4 -20 -14 -20 -50 l0 -45 31 26 c30 25 59 34 59 18
0 -5 -16 -16 -35 -25 l-36 -17 27 -35 c14 -19 33 -35 40 -35 19 0 18 -16 -2
-24 -30 -11 -40 -6 -59 32 l-19 37 -5 -35 c-4 -21 -12 -36 -22 -38 -15 -3 -17
9 -17 85 0 99 13 133 53 133 14 0 25 -5 25 -11z m118 -14 c4 -16 -12 -34 -29
-35 -14 0 -19 33 -8 47 15 17 33 12 37 -12z m590 -2 c19 -42 15 -44 -24 -18
-91 62 -164 -2 -134 -116 6 -23 22 -52 35 -65 31 -30 84 -32 110 -4 20 22 35
26 35 10 0 -27 -41 -50 -90 -50 -99 0 -146 50 -138 147 7 84 50 121 143 122
45 1 51 -2 63 -26z m85 10 c-21 -14 -23 -24 -23 -95 0 -50 4 -77 10 -73 16 10
12 -11 -5 -25 -8 -7 -22 -10 -30 -6 -12 4 -15 25 -15 99 0 103 7 117 55 116
l30 0 -22 -16z m-1184 -19 c16 -36 8 -41 -25 -15 -38 30 -107 29 -128 -1 -18
-25 -21 -103 -6 -142 24 -65 92 -86 144 -45 36 28 45 17 13 -15 -21 -21 -36
-26 -73 -26 -89 0 -144 47 -144 125 0 91 56 145 151 145 51 0 57 -2 68 -26z
m-31 -50 c24 -16 29 -54 13 -97 -18 -47 -79 -47 -99 -1 -16 33 -15 97 0 112
15 15 51 8 86 -14z m1075 15 c30 -16 37 -28 37 -67 0 -46 -16 -72 -45 -72 -41
0 -74 75 -55 124 10 28 29 32 63 15z m-751 -33 c13 -20 8 -36 -11 -36 -10 0
-21 9 -24 20 -3 11 -13 20 -22 20 -9 0 -19 -9 -22 -20 -3 -12 -14 -20 -25 -20
-19 0 -19 2 -6 23 31 46 84 52 110 13z m288 8 c0 -12 5 -11 26 5 15 11 30 18
35 15 5 -3 9 -32 9 -65 0 -35 4 -59 11 -59 5 0 7 -4 4 -10 -3 -5 -15 -10 -26
-10 -16 0 -19 7 -19 55 0 30 -4 55 -9 55 -17 0 -30 -26 -33 -65 -2 -27 -8 -41
-20 -43 -13 -3 -17 8 -20 60 -3 47 0 66 10 75 17 14 32 8 32 -13z m220 1 c0
-18 -5 -25 -19 -25 -11 0 -21 8 -23 17 -3 15 -4 15 -20 -1 -25 -25 -24 -66 2
-66 13 0 20 7 20 20 0 13 7 20 20 20 18 0 20 -7 20 -55 0 -42 -3 -55 -15 -55
-10 0 -15 10 -15 33 l-1 32 -30 -33 c-35 -39 -38 -87 -4 -87 13 0 21 8 23 22
2 15 10 23 23 23 35 0 16 -45 -29 -69 -49 -26 -88 21 -63 76 8 18 9 29 1 37
-14 14 -12 56 4 85 16 28 52 50 84 51 17 0 22 -6 22 -25z m510 -5 c0 -36 -26
-41 -39 -8 l-8 22 -19 -22 c-19 -22 -44 -30 -44 -13 0 18 53 51 81 51 26 0 29
-4 29 -30z m120 23 c-1 -18 -18 -35 -24 -24 -8 13 -46 15 -46 3 0 -5 16 -16
35 -25 28 -13 35 -22 35 -45 0 -36 -16 -52 -52 -52 -22 0 -31 6 -39 26 -13 35
-3 44 17 16 16 -23 39 -29 49 -12 3 5 -10 19 -29 31 -65 38 -56 89 15 89 22 0
39 -3 39 -7z m100 -7 c0 -19 -17 -29 -25 -16 -8 12 -45 13 -45 1 0 -5 14 -14
30 -21 56 -23 64 -84 13 -96 -33 -9 -57 6 -61 37 l-4 24 22 -22 c23 -26 50
-30 50 -9 0 7 -14 19 -30 26 -31 13 -47 47 -36 75 7 21 86 21 86 1z m120 -1
c11 -13 7 -22 -24 -54 -31 -32 -35 -39 -21 -45 9 -3 25 -1 36 4 27 15 25 -5
-3 -24 -29 -20 -47 -20 -70 1 -23 21 -24 89 -1 115 20 22 66 24 83 3z m110 2
c0 -21 -12 -28 -26 -16 -7 6 -21 9 -31 7 -14 -4 -9 -9 19 -23 60 -30 64 -88 7
-100 -34 -8 -59 8 -59 37 0 19 1 19 27 -2 20 -15 29 -18 37 -9 8 8 8 13 -1 16
-46 17 -79 73 -56 96 13 13 83 8 83 -6z m-1616 -19 c21 -29 20 -38 -3 -38 -10
0 -25 10 -33 22 -30 45 -64 -9 -42 -66 10 -25 43 -19 54 9 10 26 24 32 35 15
9 -14 -49 -70 -74 -70 -30 0 -61 45 -56 83 8 61 87 91 119 45z m364 -38 c2
-30 8 -58 15 -62 15 -9 -18 -22 -38 -14 -11 4 -15 21 -15 61 0 32 -4 55 -11
55 -5 0 -7 5 -4 11 4 5 17 9 28 7 19 -3 22 -10 25 -58z m722 -15 c0 -8 7 -15
15 -15 9 0 18 7 21 15 10 25 44 18 44 -9 0 -13 5 -26 12 -28 15 -5 1 -28 -18
-28 -8 0 -18 9 -22 21 l-8 20 -18 -20 c-24 -26 -42 -27 -56 -2 -17 33 -12 61
10 61 11 0 20 -7 20 -15z m-1020 -20 c6 -15 17 -25 29 -25 12 0 21 9 25 25 6
23 36 36 36 16 0 -31 -45 -71 -80 -71 -17 0 -50 39 -50 60 0 28 29 25 40 -5z"/>
<path d="M2767 313 c-4 -3 -7 -17 -7 -29 0 -17 4 -22 15 -18 8 4 13 10 10 14
-3 5 -1 11 5 15 6 4 8 11 5 16 -7 11 -19 12 -28 2z"/>
<path d="M123 429 c-50 -12 -99 -56 -108 -98 -9 -40 18 -98 54 -119 17 -9 34
-27 40 -39 16 -36 56 -56 97 -50 31 5 43 1 85 -33 56 -44 102 -57 161 -44 51
11 88 54 68 78 -10 13 -9 17 4 22 9 3 23 3 31 0 9 -3 33 0 55 8 22 7 44 10 52
5 22 -14 80 -10 99 7 17 15 20 15 43 0 19 -12 31 -13 50 -6 37 14 42 33 35
112 -4 40 -5 85 -2 99 6 33 -28 72 -60 67 -12 -2 -31 -17 -42 -34 -17 -26 -29
-33 -70 -38 -27 -4 -59 -6 -70 -6 -11 1 -68 2 -127 3 l-107 2 -36 35 c-35 34
-38 35 -123 37 -48 1 -106 -3 -129 -8z m220 -48 c24 -19 30 -47 16 -73 -15
-29 -39 -47 -61 -48 -23 0 -23 5 3 31 14 14 18 27 13 42 -11 36 -25 47 -60 47
-31 0 -34 -3 -34 -30 0 -25 -4 -30 -25 -30 -27 0 -32 18 -15 49 8 17 6 18 -30
11 -52 -9 -70 -26 -70 -62 0 -21 10 -39 31 -59 29 -27 29 -29 10 -29 -32 0
-71 44 -71 79 0 51 37 82 105 90 76 8 168 -1 188 -18z m512 4 c0 -13 -8 -21
-22 -23 -17 -3 -23 2 -23 16 0 10 3 22 7 26 13 13 38 1 38 -19z m-225 -62 c0
-19 -18 -25 -39 -11 -15 9 -23 10 -32 1 -9 -9 -1 -17 30 -32 34 -18 41 -26 41
-51 0 -24 -6 -33 -27 -41 -42 -16 -73 -4 -73 28 l0 27 20 -22 c22 -23 45 -28
55 -12 3 5 -12 21 -35 35 -66 41 -49 97 27 92 18 -1 33 -7 33 -14z m138 -10
c18 -25 15 -53 -7 -53 -12 0 -21 9 -25 26 -9 33 -49 31 -54 -3 -2 -15 -10 -23
-23 -23 -27 0 -24 17 11 52 25 24 36 29 58 23 15 -3 33 -13 40 -22z m80 -39
c2 -32 8 -62 15 -66 15 -9 -17 -22 -37 -15 -17 7 -27 128 -11 139 21 16 30 0
33 -58z m-346 31 c-5 -29 -27 -33 -41 -8 -9 17 -10 17 -28 0 -21 -19 -43 -23
-43 -8 0 19 45 41 81 41 33 0 36 -2 31 -25z m-288 -48 c-5 -41 -3 -57 9 -69
22 -22 12 -28 -45 -28 l-49 0 19 25 c16 20 19 36 15 75 l-5 50 31 0 31 0 -6
-53z m76 -29 c13 -23 43 -61 67 -85 45 -45 82 -55 125 -32 27 14 37 2 12 -15
-74 -55 -184 -4 -244 114 -25 48 -25 60 -2 60 11 0 28 -17 42 -42z m126 25
c-2 -26 34 -29 41 -4 3 12 13 21 24 21 14 0 19 -7 19 -30 0 -17 5 -30 12 -30
8 0 5 -7 -6 -17 -16 -17 -18 -17 -35 4 l-18 22 -21 -21 c-11 -12 -27 -18 -36
-15 -18 7 -31 50 -22 72 8 21 44 19 42 -2z m269 -23 c4 -11 15 -20 27 -20 11
0 22 8 25 20 3 11 14 20 25 20 34 0 -4 -50 -49 -64 -17 -5 -29 -1 -48 18 -14
14 -25 30 -25 36 0 19 39 10 45 -10z"/>
</g>
</svg>
